<svg width="480" height="446" viewBox="0 0 480 446" fill="none" xmlns="http://www.w3.org/2000/svg">
<path d="M106.824 94.6335H106.833L106.842 94.6335C108.872 94.6193 110.901 94.7083 112.922 94.9003C117.597 95.378 121.981 92.6127 123.621 88.2051C138.235 49.1888 175.158 23.3869 216.375 23.3399C257.593 23.2929 294.574 49.0113 309.274 87.9951L309.277 88.003L309.28 88.0107C310.915 92.2625 315.098 94.9785 319.641 94.6862L319.648 94.6857L319.656 94.6851C320.32 94.6382 321 94.6335 321.767 94.6335H321.776L321.785 94.6335C352.41 94.4158 379.822 113.874 390.019 143.122L390.02 143.123C391.471 147.279 395.368 150.082 399.765 150.082H400.549C431.585 150.082 456.794 175.535 456.794 206.991C456.794 238.448 431.585 263.9 400.549 263.9H106.824C60.6472 263.9 23.1653 226.035 23.1653 179.267C23.1653 132.499 60.6472 94.6335 106.824 94.6335ZM106.824 284.743H400.547C442.133 284.766 476.169 251.381 477.462 209.411C478.739 167.964 447.629 132.864 406.878 129.5C392.559 96.8694 361.123 75.2786 325.824 73.8611C306.441 30.4765 263.692 2.5 216.487 2.5C169.307 2.5 126.578 30.4466 107.181 73.7915C107.062 73.7912 106.943 73.7911 106.824 73.7911C49.1812 73.7911 2.5 121.041 2.5 179.267C2.5 237.493 49.1812 284.743 106.824 284.743Z" fill="#6D6E6F" stroke="#6D6E6F" stroke-width="5"/>
<path d="M161.542 128.463L161.542 128.463L130.212 223.518L130.211 223.518C129.479 225.742 127.434 227.218 125.158 227.219C123.455 227.216 121.847 226.388 120.84 224.974C119.831 223.558 119.553 221.732 120.099 220.068C120.099 220.068 120.099 220.068 120.099 220.068L151.429 125.016C151.429 125.016 151.429 125.016 151.429 125.016C152.37 122.163 155.396 120.659 158.165 121.593C160.947 122.532 162.487 125.597 161.542 128.463Z" fill="#6D6E6F" stroke="#6D6E6F" stroke-width="5"/>
<path d="M182.76 223.518L182.76 223.518C183.492 225.742 185.537 227.218 187.814 227.219C189.516 227.216 191.125 226.388 192.132 224.974C193.14 223.558 193.418 221.733 192.873 220.07L182.76 223.518ZM182.76 223.518L151.429 128.463L151.429 128.463C150.484 125.597 152.024 122.532 154.806 121.593C157.575 120.659 160.601 122.163 161.542 125.016C161.542 125.016 161.542 125.016 161.542 125.016L192.872 220.068L182.76 223.518Z" fill="#6D6E6F" stroke="#6D6E6F" stroke-width="5"/>
<path d="M174.733 187.609H138.233C135.314 187.609 132.9 185.209 132.9 182.188C132.9 179.167 135.314 176.767 138.233 176.767H174.733C177.652 176.767 180.066 179.167 180.066 182.188C180.066 185.209 177.652 187.609 174.733 187.609Z" fill="#6D6E6F" stroke="#6D6E6F" stroke-width="5"/>
<path d="M211.313 227.215C208.394 227.215 205.98 224.815 205.98 221.794V126.74C205.98 123.719 208.394 121.318 211.313 121.318C214.232 121.318 216.646 123.719 216.646 126.74V221.794C216.646 224.815 214.232 227.215 211.313 227.215Z" fill="#6D6E6F" stroke="#6D6E6F" stroke-width="5"/>
<path d="M216.646 166.346V168.846H219.146H242.644C252.703 168.846 260.809 160.607 260.809 150.503C260.809 140.4 252.703 132.161 242.644 132.161H219.146H216.646V134.661V166.346ZM242.644 179.688H211.313C208.394 179.688 205.98 177.288 205.98 174.267V126.74C205.98 123.719 208.394 121.318 211.313 121.318H242.644C258.54 121.318 271.474 134.358 271.474 150.503C271.474 166.648 258.54 179.688 242.644 179.688Z" fill="#6D6E6F" stroke="#6D6E6F" stroke-width="5"/>
<path d="M305.305 227.215C302.387 227.215 299.973 224.815 299.973 221.794V126.74C299.973 123.719 302.387 121.318 305.305 121.318C308.224 121.318 310.638 123.719 310.638 126.74V221.794C310.638 224.815 308.224 227.215 305.305 227.215Z" fill="#6D6E6F" stroke="#6D6E6F" stroke-width="5"/>
<path d="M328.803 132.161H281.807C278.889 132.161 276.475 129.76 276.475 126.74C276.475 123.719 278.889 121.318 281.807 121.318H328.803C331.722 121.318 334.136 123.719 334.136 126.74C334.136 129.76 331.722 132.161 328.803 132.161Z" fill="#6D6E6F" stroke="#6D6E6F" stroke-width="5"/>
<path d="M328.803 227.215H281.807C278.889 227.215 276.475 224.815 276.475 221.794C276.475 218.773 278.889 216.373 281.807 216.373H328.803C331.722 216.373 334.136 218.773 334.136 221.794C334.136 224.815 331.722 227.215 328.803 227.215Z" fill="#6D6E6F" stroke="#6D6E6F" stroke-width="5"/>
<path d="M110.777 320.931L80.0407 333.767L62.532 290.829L86.6457 280.787C86.6458 280.786 86.6459 280.786 86.6459 280.786C90.0663 279.362 92.4594 276.209 92.9461 272.53C93.4328 268.853 91.9442 265.182 89.0215 262.903C86.0955 260.623 82.1811 260.091 78.7576 261.516L78.7568 261.517L51.0018 273.086L50.9846 273.093L50.9675 273.1C42.422 276.813 38.4683 286.775 42.0543 295.401C42.0555 295.404 42.0568 295.407 42.058 295.41L62.3452 345.183L62.3503 345.196C64.0771 349.369 67.3709 352.691 71.5206 354.425C75.6815 356.198 80.374 356.205 84.5405 354.446C84.5422 354.445 84.5438 354.445 84.5455 354.444L111.219 343.303C119.434 353.969 128.923 363.567 139.47 371.879L128.528 398.628C126.704 402.8 126.634 407.542 128.336 411.768C130.056 416.044 133.403 419.453 137.639 421.222L186.621 441.758C188.742 442.688 191.03 443.169 193.344 443.171L193.353 443.171C200.247 443.155 206.437 438.938 209.04 432.518C209.041 432.517 209.041 432.516 209.042 432.514L220.05 405.61C233.296 407.275 246.695 407.255 259.936 405.553L270.987 432.472C270.988 432.475 270.989 432.478 270.99 432.481C272.689 436.702 275.988 440.07 280.165 441.826C284.344 443.584 289.046 443.578 293.221 441.811C293.222 441.811 293.223 441.81 293.225 441.809L342.288 421.236C346.536 419.473 349.896 416.06 351.62 411.776C353.314 407.618 353.275 402.946 351.511 398.818C351.508 398.811 351.505 398.803 351.501 398.796L340.495 371.829C351.045 363.548 360.531 353.967 368.733 343.309L395.188 354.383C395.195 354.386 395.201 354.388 395.207 354.391C399.388 356.212 404.119 356.259 408.335 354.521C412.555 352.78 415.897 349.401 417.617 345.152C417.618 345.151 417.618 345.149 417.619 345.147L437.992 295.46L437.992 295.459C439.705 291.276 439.718 286.58 438.027 282.388C436.333 278.14 433.008 274.757 428.8 273.017C428.797 273.016 428.795 273.015 428.793 273.014L408.679 264.545L408.667 264.54L408.656 264.535C407.374 264.01 406.004 263.741 404.62 263.742L404.608 263.742C399.603 263.769 395.365 267.404 394.496 272.335C393.631 277.246 396.341 282.107 400.99 283.892L417.523 290.851L399.915 333.792L369.186 320.934C364.702 319.051 359.538 320.579 356.765 324.575L356.763 324.579C347.299 338.274 335.517 350.167 321.961 359.71C317.975 362.508 316.468 367.718 318.309 372.229L318.309 372.229L331.027 403.381L288.695 421.132L275.921 390.022L275.919 390.018C274.059 385.511 269.336 382.889 264.54 383.754L264.534 383.755C248.288 386.729 231.649 386.752 215.395 383.824L215.393 383.823C210.596 382.963 205.878 385.598 204.033 390.11L191.33 421.159L148.937 403.386L161.644 372.318L159.331 371.37L161.645 372.316L161.645 372.317C163.489 367.818 161.998 362.617 158.029 359.81C144.475 350.217 132.686 338.296 123.196 324.587L123.193 324.583C120.42 320.592 115.265 319.061 110.78 320.93L110.777 320.931Z" fill="#6D6E6F" stroke="#6D6E6F" stroke-width="5"/>
<path d="M239.971 356.034L239.981 356.034L239.991 356.034C289.661 355.834 334.112 324.866 352.002 278.045C353.347 274.57 352.749 270.63 350.425 267.719C348.096 264.803 344.388 263.364 340.71 263.971C337.036 264.576 333.983 267.124 332.693 270.621C318.004 309.519 281.115 335.192 239.981 335.192C198.846 335.192 161.957 309.518 147.268 270.621C145.978 267.123 142.925 264.576 139.252 263.971C135.573 263.364 131.865 264.803 129.537 267.719C127.212 270.631 126.614 274.571 127.96 278.046C145.85 324.867 190.3 355.834 239.971 356.034Z" fill="#6D6E6F" stroke="#6D6E6F" stroke-width="5"/>
</svg>
