<svg width="100" height="100" viewBox="0 0 100 100" fill="none" xmlns="http://www.w3.org/2000/svg">
<path fill-rule="evenodd" clip-rule="evenodd" d="M25.6134 0H59.0726L87.3956 29.5498V86.9911C87.3956 94.1764 81.5719 100 74.3868 100H25.6134C18.4281 100 12.6046 94.1763 12.6046 86.9911V13.0088C12.6046 5.82371 18.4281 0 25.6134 0Z" fill="#888888"/>
<path opacity="0.302" fill-rule="evenodd" clip-rule="evenodd" d="M59.0322 0V29.3071H87.3957L59.0322 0Z" fill="white"/>
<path d="M59.8411 62.0384C59.8411 61.4317 59.3827 60.96 58.7627 60.96C58.1427 60.96 57.6707 61.4317 57.6707 62.0384C57.6707 66.2848 54.2331 69.7223 50.0002 69.7223C45.7672 69.7223 42.3296 66.2847 42.3296 62.0384C42.3296 61.4317 41.8578 60.96 41.2377 60.96C40.6311 60.96 40.1593 61.4317 40.1593 62.0384C40.1593 67.0802 43.9205 71.3131 48.9218 71.8523V74.7507H44.9717C44.3516 74.7507 43.8798 75.2224 43.8798 75.8292C43.8798 76.4493 44.3516 76.9211 44.9717 76.9211H55.0284C55.6485 76.9211 56.1203 76.4493 56.1203 75.8292C56.1203 75.2226 55.6485 74.7507 55.0284 74.7507H51.092V71.8523C56.0799 71.3131 59.8411 67.0801 59.8411 62.0384ZM50 46.158C46.6704 46.158 43.9607 48.8675 43.9607 52.1974V62.0113C43.9607 65.368 46.6702 68.0507 50 68.0911C53.3297 68.0911 56.0528 65.368 56.0528 62.0384V52.1975C56.053 48.8677 53.3297 46.158 50 46.158Z" fill="white"/>
</svg>
