<svg width="100" height="100" viewBox="0 0 100 100" fill="none" xmlns="http://www.w3.org/2000/svg">
<path d="M25.6134 0H59.0725L87.3956 29.5498V86.9911C87.3956 94.1764 81.5719 100 74.3868 100H25.6134C18.4281 100 12.6045 94.1763 12.6045 86.9911V13.0088C12.6045 5.82371 18.4281 0 25.6134 0Z" fill="#888888"/>
<path opacity="0.302" fill-rule="evenodd" clip-rule="evenodd" d="M59.0321 0V29.3071H87.3956L59.0321 0Z" fill="white"/>
<path d="M24.6832 71.3535V54.7991H30.5473C31.7201 54.7991 32.8121 54.9744 33.8232 55.298C34.8342 55.635 35.7509 56.1203 36.5733 56.7674C37.3956 57.4145 38.0428 58.2773 38.5145 59.3557C38.9863 60.4341 39.2291 61.6743 39.2291 63.0763C39.2291 64.4783 38.9863 65.7185 38.5145 66.7969C38.0428 67.8753 37.3956 68.7382 36.5733 69.3852C35.751 70.0322 34.8342 70.5176 33.8232 70.8547C32.8121 71.1782 31.7202 71.3535 30.5473 71.3535H24.6832ZM28.8218 67.7542H30.0485C30.709 67.7542 31.3292 67.6733 31.8818 67.525C32.448 67.3632 32.9602 67.1071 33.4455 66.77C33.9308 66.4329 34.3082 65.9477 34.5779 65.3141C34.861 64.694 34.9957 63.939 34.9957 63.0763C34.9957 62.2136 34.8609 61.4587 34.5779 60.825C34.3082 60.2049 33.9308 59.7196 33.4455 59.3826C32.9602 59.0321 32.448 58.7895 31.8818 58.6277C31.3292 58.4793 30.709 58.3985 30.0485 58.3985H28.8218V67.7542ZM49.2721 71.5423C46.7782 71.5423 44.7157 70.7334 43.0845 69.1292C41.4533 67.525 40.6444 65.5029 40.6444 63.0764C40.6444 60.6499 41.4533 58.6278 43.0845 57.0237C44.7157 55.4194 46.7782 54.6106 49.2721 54.6106C51.7255 54.6106 53.7612 55.4195 55.3923 57.0237C57.01 58.6279 57.8189 60.65 57.8189 63.0764C57.8189 65.5029 57.01 67.5251 55.3923 69.1292C53.7612 70.7334 51.7255 71.5423 49.2721 71.5423ZM46.0906 66.5679C46.9129 67.4845 47.9644 67.9429 49.2451 67.9429C50.5257 67.9429 51.5637 67.4845 52.3861 66.5679C53.2084 65.6377 53.6128 64.4783 53.6128 63.0763C53.6128 61.6743 53.2084 60.515 52.3861 59.5848C51.5638 58.6681 50.5257 58.2097 49.2451 58.2097C47.9644 58.2097 46.9129 58.6681 46.0906 59.5848C45.2683 60.515 44.8504 61.6743 44.8504 63.0763C44.8504 64.4783 45.2683 65.6377 46.0906 66.5679ZM67.6598 71.5423C65.2467 71.5423 63.238 70.7873 61.6474 69.3045C60.0431 67.8081 59.2479 65.7321 59.2479 63.0763C59.2479 60.4341 60.0568 58.358 61.6744 56.8617C63.3056 55.3653 65.2873 54.6104 67.6599 54.6104C69.8033 54.6104 71.5558 55.1361 72.9443 56.2011C74.3194 57.2526 75.1148 58.6546 75.3169 60.4071L71.1379 61.2564C70.9627 60.3397 70.5447 59.5983 69.8977 59.0455C69.2506 58.4927 68.4957 58.2097 67.6329 58.2097C66.4466 58.2097 65.4624 58.6277 64.667 59.4769C63.8717 60.3396 63.4672 61.5259 63.4672 63.0762C63.4672 64.6265 63.8717 65.8128 64.6535 66.6621C65.4489 67.5248 66.433 67.9428 67.6327 67.9428C68.4954 67.9428 69.237 67.7002 69.8436 67.2149C70.4502 66.7296 70.8277 66.0826 70.9895 65.2737L75.2629 66.2443C74.8719 67.9159 74.0091 69.2101 72.6611 70.1402C71.3266 71.0705 69.6549 71.5423 67.6598 71.5423Z" fill="white"/>
</svg>
