<svg width="512" height="421" viewBox="0 0 512 421" fill="none" xmlns="http://www.w3.org/2000/svg">
<path d="M508.181 199.528C489.45 158.568 415.999 25 255.999 25C95.9992 25 22.5485 158.568 3.81787 199.528C1.30349 205.017 0.00195313 210.984 0.00195312 217.021C0.00195312 223.059 1.30349 229.026 3.81787 234.515C22.5485 275.432 95.9992 409 255.999 409C415.999 409 489.45 275.432 508.181 234.472C510.69 228.989 511.989 223.03 511.989 217C511.989 210.97 510.69 205.011 508.181 199.528ZM255.999 366.333C121.45 366.333 58.6659 251.859 42.6659 217.235C58.6659 182.141 121.45 67.6667 255.999 67.6667C390.229 67.6667 453.034 181.651 469.333 217C453.034 252.349 390.229 366.333 255.999 366.333Z" fill="#6D6E6F"/>
<path d="M255.999 110.333C234.902 110.333 214.279 116.589 196.738 128.31C179.197 140.031 165.525 156.69 157.452 176.18C149.378 195.671 147.266 217.118 151.382 237.81C155.497 258.501 165.656 277.507 180.574 292.425C195.492 307.342 214.498 317.501 235.189 321.617C255.88 325.733 277.328 323.62 296.818 315.547C316.309 307.474 332.968 293.802 344.689 276.261C356.41 258.72 362.665 238.097 362.665 217C362.632 188.721 351.383 161.609 331.386 141.613C311.39 121.616 284.278 110.367 255.999 110.333ZM255.999 281C243.341 281 230.967 277.246 220.442 270.214C209.918 263.182 201.714 253.186 196.87 241.492C192.026 229.797 190.759 216.929 193.228 204.514C195.698 192.099 201.793 180.696 210.744 171.745C219.694 162.795 231.098 156.699 243.513 154.23C255.928 151.76 268.796 153.028 280.49 157.872C292.185 162.716 302.18 170.919 309.213 181.443C316.245 191.968 319.999 204.342 319.999 217C319.999 233.974 313.256 250.252 301.254 262.255C289.251 274.257 272.973 281 255.999 281Z" fill="#6D6E6F"/>
<path d="M77 25L443 394" stroke="#6D6E6F" stroke-width="42" stroke-linecap="round"/>
</svg>
