<svg width="512" height="512" viewBox="0 0 512 512" fill="none" xmlns="http://www.w3.org/2000/svg">
<path d="M256.001 15.0588C180.707 15.0588 120.471 75.2941 120.471 150.588V210.824C94.8714 210.824 75.2949 230.4 75.2949 256V451.765C75.2949 477.365 94.8714 496.941 120.471 496.941H391.53C417.13 496.941 436.707 477.365 436.707 451.765V256C436.707 230.4 417.13 210.824 391.53 210.824V150.588C391.53 75.2941 331.295 15.0588 256.001 15.0588ZM406.589 256V451.765C406.589 460.8 400.566 466.824 391.53 466.824H120.471C111.436 466.824 105.413 460.8 105.413 451.765V256C105.413 246.965 111.436 240.941 120.471 240.941H135.53H376.471H391.53C400.566 240.941 406.589 246.965 406.589 256ZM150.589 210.824V150.588C150.589 91.8588 197.271 45.1765 256.001 45.1765C314.73 45.1765 361.413 91.8588 361.413 150.588V210.824H150.589Z" fill="#6D6E6F"/>
<path d="M256.001 286.118C230.401 286.118 210.824 305.694 210.824 331.294C210.824 350.871 222.871 367.435 240.942 373.459V406.588C240.942 415.624 246.965 421.647 256.001 421.647C265.036 421.647 271.06 415.624 271.06 406.588V373.459C289.13 367.435 301.177 350.871 301.177 331.294C301.177 305.694 281.601 286.118 256.001 286.118ZM256.001 346.353C246.965 346.353 240.942 340.329 240.942 331.294C240.942 322.259 246.965 316.235 256.001 316.235C265.036 316.235 271.06 322.259 271.06 331.294C271.06 340.329 265.036 346.353 256.001 346.353Z" fill="#6D6E6F"/>
</svg>
