<svg width="51" height="55" viewBox="0 0 51 55" fill="none" xmlns="http://www.w3.org/2000/svg">
<path d="M3.23125 14C2.63671 14 0 14.5492 0 15.2258V48.3226C0 50.3537 1.44653 52 3.23125 52H46.3147C48.0994 52 49 50.774 49 48.7429H47.46H23.9674H13.3152H5.36169C4.18508 48.7429 3.23125 47.7707 3.23125 46.5714V40.4822V14Z" fill="#ADADAF"/>
<path d="M8 0C6.346 0 5 1.50624 5 3.35714V10.0714H6H50H51V7.83333C51 5.98243 49.654 4.47619 48 4.47619L21.0449 4.48275C20.7659 4.36972 20.1889 3.34169 19.8789 2.78888C19.1119 1.41916 18.317 0 17 0H8ZM6 12.3095C5.448 12.3095 5 12.8109 5 13.4286V43.6429C5 45.4971 6.343 47 8 47H48C49.657 47 51 45.4971 51 43.6429V13.4286C51 12.8109 50.552 12.3095 50 12.3095H6Z" fill="#ADADAF"/>
</svg>
