<svg width="100" height="100" viewBox="0 0 100 100" fill="none" xmlns="http://www.w3.org/2000/svg">
<path fill-rule="evenodd" clip-rule="evenodd" d="M25.6247 0H59.058L87.3938 29.5353V86.9815C87.3938 94.1779 81.5718 100 74.4003 100H25.6247C18.4284 100 12.6063 94.1779 12.6063 86.9815V13.0184C12.6062 5.82207 18.4282 0 25.6247 0Z" fill="#888888"/>
<path opacity="0.302" fill-rule="evenodd" clip-rule="evenodd" d="M59.033 0V29.3104H87.3938L59.033 0Z" fill="white"/>
<path d="M27.074 74.6127V56.3468H34.8451C36.7692 56.3468 38.2934 56.8715 39.4428 57.946C40.5923 58.9955 41.167 60.4198 41.167 62.1939C41.167 63.968 40.5923 65.3923 39.4428 66.4418C38.2934 67.5162 36.7692 68.041 34.8451 68.041H31.7466V74.6127H27.074ZM31.7466 64.068H34.3204C35.02 64.068 35.5697 63.9181 35.9446 63.5683C36.3194 63.2435 36.5194 62.7937 36.5194 62.194C36.5194 61.5944 36.3195 61.1446 35.9446 60.8197C35.5698 60.4698 35.0201 60.32 34.3204 60.32H31.7466V64.068ZM43.0909 74.6127V56.3468H49.5627C50.8371 56.3468 52.0365 56.5217 53.1609 56.8965C54.2853 57.2713 55.3098 57.7962 56.2093 58.5208C57.1089 59.2204 57.8336 60.1699 58.3583 61.3693C58.858 62.5688 59.1329 63.9431 59.1329 65.4922C59.1329 67.0165 58.8581 68.3908 58.3583 69.5901C57.8336 70.7896 57.1089 71.7391 56.2093 72.4387C55.3097 73.1633 54.2853 73.688 53.1609 74.0629C52.0365 74.4377 50.8371 74.6127 49.5627 74.6127H43.0909ZM47.6637 70.6397H49.013C49.7376 70.6397 50.4123 70.5648 51.037 70.3898C51.6366 70.2149 52.2114 69.94 52.7611 69.5653C53.2858 69.1905 53.7106 68.6656 54.0105 67.966C54.3103 67.2664 54.4603 66.4418 54.4603 65.4922C54.4603 64.5177 54.3103 63.6932 54.0105 62.9936C53.7106 62.294 53.2858 61.7692 52.7611 61.3943C52.2114 61.0196 51.6367 60.7447 51.037 60.5698C50.4123 60.3949 49.7376 60.3199 49.013 60.3199H47.6637V70.6397ZM61.4818 74.6127V56.3468H74.4753V60.3199H66.1544V63.2433H72.8011V67.1914H66.1544V74.6127H61.4818Z" fill="white"/>
</svg>
