<svg width="100" height="100" viewBox="0 0 100 100" fill="none" xmlns="http://www.w3.org/2000/svg">
<path fill-rule="evenodd" clip-rule="evenodd" d="M25.6247 0H59.058L87.3938 29.5353V86.9815C87.3938 94.1779 81.5718 100 74.4003 100H25.6247C18.4284 100 12.6063 94.1779 12.6063 86.9815V13.0184C12.6062 5.82207 18.4282 0 25.6247 0Z" fill="#888888"/>
<path opacity="0.302" fill-rule="evenodd" clip-rule="evenodd" d="M59.033 0V29.3104H87.3938L59.033 0Z" fill="white"/>
<path d="M28.3233 71.5392V53.3733H36.0444C37.9435 53.3733 39.4677 53.898 40.6171 54.9725C41.7415 56.022 42.3163 57.4213 42.3163 59.1954C42.3163 60.9445 41.7415 62.3688 40.6171 63.4182C39.4677 64.4677 37.9435 64.9924 36.0444 64.9924H32.946V71.5392H28.3233ZM32.9461 61.0445H35.5198C36.2194 61.0445 36.7441 60.8945 37.144 60.5697C37.5188 60.2448 37.6938 59.7701 37.6938 59.1954C37.6938 58.5957 37.5189 58.1459 37.144 57.8211C36.7443 57.4962 36.2195 57.3213 35.5198 57.3213H32.9461V61.0445ZM44.2654 71.5392V53.3733H51.9865C53.8855 53.3733 55.4098 53.898 56.5592 54.9725C57.7086 56.022 58.2584 57.4213 58.2584 59.1954C58.2584 60.9445 57.7086 62.3688 56.5592 63.4182C55.4098 64.4677 53.8855 64.9924 51.9865 64.9924H48.913V71.5392H44.2654ZM48.913 61.0445H51.4617C52.1613 61.0445 52.7111 60.8945 53.086 60.5697C53.4607 60.2448 53.6607 59.7701 53.6607 59.1954C53.6607 58.5957 53.4609 58.1459 53.086 57.8211C52.7111 57.4962 52.1615 57.3213 51.4617 57.3213H48.913V61.0445ZM64.93 71.5392V57.3213H59.7576V53.3733H74.7752V57.3213H69.5778V71.5392H64.93Z" fill="white"/>
</svg>
