<svg width="100" height="100" viewBox="0 0 100 100" fill="none" xmlns="http://www.w3.org/2000/svg">
<path fill-rule="evenodd" clip-rule="evenodd" d="M25.6237 0H59.0698L87.3995 29.556V86.9767C87.3995 94.1649 81.5644 100 74.3763 100H25.6237C18.4356 100 12.6005 94.1649 12.6005 86.9767V13.0232C12.6005 5.83508 18.4356 0 25.6237 0Z" fill="#888888"/>
<path opacity="0.302" fill-rule="evenodd" clip-rule="evenodd" d="M59.0276 0V29.3023H87.3996L59.0276 0Z" fill="white"/>
<path fill-rule="evenodd" clip-rule="evenodd" d="M34.6301 73.3616H47.907V78.3933H34.6301V73.3616ZM52.0508 47.6533H65.3701V52.6427H52.0508V47.6533ZM34.6301 47.6533H47.907V52.6427H34.6301V47.6533ZM52.0508 56.1099H65.3701V61.1417H52.0508V56.1099ZM34.6301 56.1099H47.907V61.1417H34.6301V56.1099ZM52.0508 64.9049H65.3701V69.9366H52.0508V64.9049ZM34.6301 64.9049H47.907V69.9366H34.6301V64.9049ZM52.0508 73.3616H65.3701V78.3933H52.0508V73.3616Z" fill="white"/>
</svg>
