<svg width="100" height="100" viewBox="0 0 100 100" fill="none" xmlns="http://www.w3.org/2000/svg">
<path d="M25.6011 0H59.0691L87.4015 29.5441V86.9975C87.4015 94.172 81.5735 100 74.3798 100H25.6012C18.4267 100 12.5987 94.172 12.5987 86.9975V13.0025C12.5986 5.82801 18.4266 0 25.6011 0Z" fill="#888888"/>
<path opacity="0.302" fill-rule="evenodd" clip-rule="evenodd" d="M59.0306 0V29.3134H87.4014L59.0306 0Z" fill="white"/>
<path d="M63.1852 52.0293H36.8148C35.603 52.0293 34.6028 51.0483 34.6028 49.8366C34.6028 48.6249 35.603 47.644 36.8148 47.644H63.1852C64.397 47.644 65.3779 48.6249 65.3779 49.8366C65.3779 51.0483 64.397 52.0293 63.1852 52.0293ZM54.3951 78.3997H36.8148C35.603 78.3997 34.6028 77.4188 34.6028 76.2071C34.6028 74.9954 35.603 74.0144 36.8148 74.0144H54.3951C55.6069 74.0144 56.5877 74.9954 56.5877 76.2071C56.5877 77.4188 55.6069 78.3997 54.3951 78.3997ZM63.1852 69.6096H36.8148C35.603 69.6096 34.6028 68.6286 34.6028 67.4169C34.6028 66.2052 35.603 65.2242 36.8148 65.2242H63.1852C64.397 65.2242 65.3779 66.2052 65.3779 67.4169C65.3779 68.6286 64.397 69.6096 63.1852 69.6096ZM63.1852 60.8194H36.8148C35.603 60.8194 34.6028 59.8385 34.6028 58.6268C34.6028 57.4151 35.603 56.4341 36.8148 56.4341H63.1852C64.397 56.4341 65.3779 57.4151 65.3779 58.6268C65.3779 59.8385 64.397 60.8194 63.1852 60.8194Z" fill="white"/>
</svg>
