<svg width="100" height="100" viewBox="0 0 100 100" fill="none" xmlns="http://www.w3.org/2000/svg">
<path fill-rule="evenodd" clip-rule="evenodd" d="M25.6237 0H59.0698L87.3995 29.556V86.9767C87.3995 94.1649 81.5644 100 74.3763 100H25.6237C18.4356 100 12.6005 94.1649 12.6005 86.9767V13.0232C12.6005 5.83508 18.4356 0 25.6237 0Z" fill="#888888"/>
<path opacity="0.302" fill-rule="evenodd" clip-rule="evenodd" d="M59.0276 0V29.3023H87.3997L59.0276 0Z" fill="white"/>
<path d="M67.315 53.5307C66.9768 53.277 66.4693 53.277 66.0888 53.4462L57.6744 57.6745V54.6301C57.6744 52.4737 55.9831 50.7823 53.8267 50.7823H35.8985C33.7843 50.7823 32.0508 52.4737 32.0508 54.6301V69.9789C32.0508 72.1353 33.7844 73.8266 35.8985 73.8266H53.8267C55.9831 73.8266 57.6744 72.1353 57.6744 69.9789V66.9345L66.0888 71.1628C66.723 71.4589 67.4842 71.2051 67.8224 70.5709C67.9069 70.4017 67.9493 70.1903 67.9493 69.9789V54.6301C67.9493 54.1649 67.6956 53.7421 67.315 53.5307ZM44.8626 67.4418C42.0296 67.4418 39.7464 65.1162 39.7464 62.2832C39.7464 59.4502 42.0296 57.1669 44.8626 57.1669C47.6957 57.1669 49.9789 59.4502 49.9789 62.2832C49.9789 65.1162 47.6957 67.4418 44.8626 67.4418Z" fill="white"/>
</svg>
